<?xml version="1.0" encoding="utf-8"?>
<!-- Generator: Adobe Illustrator 16.0.0, SVG Export Plug-In . SVG Version: 6.00 Build 0)  -->
<!DOCTYPE svg PUBLIC "-//W3C//DTD SVG 1.1//EN" "http://www.w3.org/Graphics/SVG/1.1/DTD/svg11.dtd">
<svg version="1.1" id="Layer_1" xmlns="http://www.w3.org/2000/svg" xmlns:xlink="http://www.w3.org/1999/xlink" x="0px" y="0px"
	 width="841.89px" height="595.28px" viewBox="0 0 841.89 595.28" enable-background="new 0 0 841.89 595.28" xml:space="preserve">
<g>
	<ellipse fill="#E61660" cx="-470.564" cy="316.993" rx="152.692" ry="153.851"/>
	<circle fill="#53C3C0" cx="-545.323" cy="191.369" r="90.64"/>
	<g>
		<path fill="#FFFFFF" d="M-600.044,140.405h16.66c11.106,0,18.625,0.429,22.557,1.286c3.933,0.857,7.138,3.047,9.616,6.57
			c2.479,3.521,3.718,9.14,3.718,16.855c0,7.044-0.876,11.777-2.628,14.2c-1.751,2.423-5.198,3.876-10.342,4.362
			c4.658,1.154,7.789,2.702,9.392,4.64c1.602,1.938,2.6,3.718,2.99,5.339c0.392,1.62,0.588,6.084,0.588,13.388v23.872h-21.858
			V200.84c0-4.845-0.383-7.845-1.147-9.001c-0.763-1.154-2.767-1.732-6.009-1.732v40.811h-23.536V140.405z M-576.508,155.892v20.127
			c2.646,0,4.501-0.364,5.563-1.091c1.061-0.725,1.593-3.083,1.593-7.071v-4.975c0-2.87-0.513-4.753-1.539-5.647
			C-571.915,156.339-573.787,155.892-576.508,155.892z"/>
		<path fill="#FFFFFF" d="M-539.802,140.405h39.245v18.114h-15.709v17.164h14.703v17.218h-14.703v19.902h17.274v18.114h-40.811
			V140.405z"/>
		<path fill="#FFFFFF" d="M-465.66,186.024v15.598h-29.687v-15.598H-465.66z"/>
	</g>
	<path fill="#CFBA2C" d="M-245.927,387.66c0,59.036-47.859,106.892-106.893,106.892s-106.888-47.855-106.888-106.892
		c0-59.03,47.854-106.887,106.888-106.887S-245.927,328.63-245.927,387.66z"/>
	<g>
		<path fill="#FFFFFF" d="M-431.235,347.974h6.429l2.562,17.138h-11.276L-431.235,347.974z M-428.697,362.053h1.533
			c0-0.218-0.094-1.867-0.281-4.944c-0.188-3.08-0.323-4.846-0.399-5.296c-0.078,0.46-0.241,2.246-0.486,5.359
			C-428.573,360.285-428.697,361.911-428.697,362.053z"/>
		<path fill="#FFFFFF" d="M-421.125,365.111v-17.138h4.464v17.138H-421.125z"/>
		<path fill="#FFFFFF" d="M-406.805,347.983l2.548,17.128h-4.552l-0.239-3.079h-1.593l-0.269,3.079h-4.604l2.271-17.128H-406.805z
			 M-409.165,358.997c-0.227-1.94-0.45-4.337-0.678-7.193c-0.453,3.279-0.74,5.676-0.854,7.193H-409.165z"/>
		<path fill="#FFFFFF" d="M-387.3,356.722c0,1.121-0.055,1.928-0.16,2.424c-0.148,0.683-0.463,1.3-0.94,1.85
			c-0.749,0.853-2.155,1.281-4.223,1.281h-0.782v2.835h-4.465v-2.835h-0.686c-2.074,0-3.485-0.429-4.232-1.281
			c-0.48-0.55-0.795-1.167-0.942-1.85c-0.106-0.496-0.157-1.303-0.157-2.424v-0.297c0-1.121,0.051-1.928,0.157-2.421
			c0.147-0.687,0.462-1.303,0.942-1.853c0.741-0.831,2.149-1.249,4.232-1.249c0.153,0,0.384-0.009,0.686-0.029v-2.899h4.465v2.899
			c0.359,0.021,0.619,0.029,0.782,0.029c2.08,0,3.488,0.418,4.223,1.249c0.478,0.55,0.792,1.166,0.94,1.853
			c0.105,0.493,0.16,1.3,0.16,2.421V356.722z M-397.87,359.61v-6.072h-0.369c-0.332,0-0.613,0.176-0.843,0.529
			c-0.227,0.351-0.342,0.819-0.342,1.405v2.213c0,0.577,0.115,1.043,0.342,1.396c0.229,0.351,0.511,0.528,0.843,0.528H-397.87z
			 M-391.755,357.686v-2.213c0-0.586-0.115-1.055-0.345-1.405c-0.228-0.354-0.511-0.529-0.85-0.529h-0.456v6.072h0.456
			c0.339,0,0.622-0.178,0.85-0.528C-391.87,358.729-391.755,358.263-391.755,357.686z"/>
		<path fill="#FFFFFF" d="M-375.69,358.012c0,1.72-0.043,2.941-0.124,3.654c-0.079,0.717-0.333,1.372-0.762,1.965
			c-0.426,0.592-1.003,1.046-1.729,1.363s-1.572,0.478-2.539,0.478c-0.916,0-1.741-0.151-2.47-0.45
			c-0.731-0.3-1.317-0.75-1.762-1.349c-0.444-0.602-0.708-1.254-0.792-1.958c-0.085-0.705-0.127-1.94-0.127-3.703v-2.929
			c0-1.723,0.039-2.94,0.12-3.657c0.082-0.713,0.336-1.369,0.762-1.962c0.427-0.592,1.004-1.046,1.729-1.363
			s1.571-0.478,2.539-0.478c0.916,0,1.741,0.151,2.47,0.451c0.73,0.299,1.317,0.749,1.762,1.348s0.71,1.251,0.795,1.959
			c0.084,0.704,0.127,1.937,0.127,3.702V358.012z M-380.146,352.384c0-0.798-0.043-1.306-0.133-1.529
			c-0.088-0.221-0.27-0.333-0.545-0.333c-0.232,0-0.41,0.091-0.534,0.27c-0.121,0.182-0.185,0.71-0.185,1.593v7.998
			c0,0.994,0.042,1.607,0.121,1.841c0.081,0.232,0.271,0.351,0.568,0.351c0.302,0,0.495-0.137,0.58-0.402
			c0.084-0.269,0.127-0.907,0.127-1.916V352.384z"/>
		<path fill="#FFFFFF" d="M-369.519,365.111h-4.464v-17.138h4.485c1.105,0,1.977,0.07,2.608,0.212
			c0.628,0.139,1.157,0.426,1.581,0.861c0.423,0.433,0.683,0.9,0.776,1.402c0.097,0.499,0.142,1.278,0.142,2.337v1.472
			c0,1.714-0.341,2.802-1.024,3.268c-0.683,0.465-1.656,0.698-2.92,0.698h-1.185V365.111z M-368.113,353.717v-1.385
			c0-0.58-0.087-0.958-0.269-1.139c-0.179-0.179-0.56-0.27-1.137-0.27v4.35h0.326c0.402,0,0.684-0.097,0.844-0.293
			C-368.191,354.787-368.113,354.366-368.113,353.717z"/>
		<path fill="#FFFFFF" d="M-362.999,347.983h7.427v3.427h-2.975v3.25h2.784v3.258h-2.784v3.767h3.271v3.427h-7.723V347.983z"/>
		<path fill="#FFFFFF" d="M-344.677,347.983v3.427h-2.645v13.701h-4.452V351.41h-2.636v-3.427H-344.677z"/>
		<path fill="#FFFFFF" d="M-343.41,365.111v-17.138h4.465v17.138H-343.41z"/>
		<path fill="#FFFFFF" d="M-326.508,347.983l-2.554,7.734l2.799,9.394h-4.604l-1.805-7.342v7.342h-4.452v-17.128h4.452v6.655
			l1.986-6.655H-326.508z"/>
		<path fill="#FFFFFF" d="M-315.36,358.012c0,1.72-0.043,2.941-0.124,3.654c-0.079,0.717-0.333,1.372-0.762,1.965
			c-0.427,0.592-1.004,1.046-1.729,1.363c-0.725,0.317-1.571,0.478-2.538,0.478c-0.916,0-1.741-0.151-2.47-0.45
			c-0.731-0.3-1.318-0.75-1.762-1.349c-0.445-0.602-0.708-1.254-0.792-1.958c-0.085-0.705-0.127-1.94-0.127-3.703v-2.929
			c0-1.723,0.039-2.94,0.12-3.657c0.082-0.713,0.336-1.369,0.762-1.962c0.427-0.592,1.004-1.046,1.729-1.363
			s1.571-0.478,2.539-0.478c0.915,0,1.74,0.151,2.469,0.451c0.731,0.299,1.318,0.749,1.763,1.348s0.71,1.251,0.795,1.959
			c0.084,0.704,0.127,1.937,0.127,3.702V358.012z M-319.815,352.384c0-0.798-0.043-1.306-0.134-1.529
			c-0.087-0.221-0.269-0.333-0.544-0.333c-0.232,0-0.411,0.091-0.535,0.27c-0.12,0.182-0.184,0.71-0.184,1.593v7.998
			c0,0.994,0.042,1.607,0.121,1.841c0.081,0.232,0.271,0.351,0.567,0.351c0.303,0,0.496-0.137,0.581-0.402
			c0.084-0.269,0.127-0.907,0.127-1.916V352.384z"/>
		<path fill="#FFFFFF" d="M-304.464,347.983v3.427h-2.646v13.701h-4.452V351.41h-2.636v-3.427H-304.464z"/>
		<path fill="#FFFFFF" d="M-292.958,347.983v17.128h-4.455v-7.193h-1.333v7.193h-4.452v-17.128h4.452v6.126h1.333v-6.126H-292.958z"
			/>
		<path fill="#FFFFFF" d="M-281.949,347.983v3.427h-2.645v13.701h-4.456V351.41h-2.632v-3.427H-281.949z"/>
		<path fill="#FFFFFF" d="M-273.365,347.983l2.545,17.128h-4.549l-0.242-3.079h-1.593l-0.266,3.079h-4.606l2.272-17.128H-273.365z
			 M-275.726,358.997c-0.228-1.94-0.454-4.337-0.681-7.193c-0.453,3.279-0.737,5.676-0.853,7.193H-275.726z"/>
		<path fill="#FFFFFF" d="M-432.505,375.839h7.426v3.428h-2.974v3.249h2.783v3.258h-2.783v3.767h3.271v3.428h-7.723V375.839z"/>
		<path fill="#FFFFFF" d="M-413.445,375.839v17.129h-3.905l-2.314-7.786v7.786h-3.725v-17.129h3.725l2.496,7.714v-7.714H-413.445z"
			/>
		<path fill="#FFFFFF" d="M-411.622,375.839h7.426v3.428h-2.974v3.249h2.783v3.258h-2.783v3.767h3.271v3.428h-7.723V375.839z"/>
		<path fill="#FFFFFF" d="M-398.045,392.968h-4.465V375.83h4.485c1.109,0,1.977,0.069,2.608,0.211
			c0.632,0.14,1.158,0.427,1.581,0.861c0.423,0.433,0.684,0.901,0.78,1.402c0.094,0.499,0.142,1.279,0.142,2.337v1.472
			c0,1.714-0.342,2.802-1.027,3.268c-0.684,0.466-1.656,0.698-2.92,0.698h-1.185V392.968z M-396.637,381.572v-1.384
			c0-0.581-0.091-0.958-0.269-1.14c-0.182-0.179-0.56-0.27-1.14-0.27v4.35h0.329c0.402,0,0.684-0.097,0.84-0.293
			C-396.716,382.643-396.637,382.223-396.637,381.572z"/>
		<path fill="#FFFFFF" d="M-391.52,392.968V375.83h7.151v3.406h-2.688v13.731H-391.52z"/>
		<path fill="#FFFFFF" d="M-372.874,385.867c0,1.721-0.042,2.941-0.123,3.654c-0.079,0.717-0.333,1.373-0.762,1.965
			c-0.427,0.593-1.004,1.046-1.729,1.363s-1.571,0.478-2.539,0.478c-0.915,0-1.74-0.151-2.469-0.45
			c-0.731-0.299-1.318-0.75-1.763-1.348c-0.444-0.602-0.707-1.255-0.792-1.959c-0.084-0.704-0.127-1.94-0.127-3.703v-2.929
			c0-1.723,0.04-2.94,0.121-3.657c0.082-0.713,0.336-1.369,0.762-1.961c0.427-0.593,1.004-1.046,1.729-1.363
			c0.725-0.317,1.571-0.478,2.538-0.478c0.916,0,1.741,0.15,2.47,0.45c0.731,0.299,1.318,0.749,1.762,1.348
			c0.445,0.599,0.711,1.252,0.795,1.959c0.085,0.704,0.127,1.938,0.127,3.702V385.867z M-377.329,380.239
			c0-0.798-0.042-1.306-0.133-1.529c-0.088-0.221-0.269-0.332-0.544-0.332c-0.232,0-0.411,0.091-0.535,0.269
			c-0.121,0.182-0.185,0.711-0.185,1.593v7.998c0,0.994,0.043,1.608,0.121,1.841c0.082,0.232,0.272,0.351,0.568,0.351
			c0.303,0,0.496-0.136,0.58-0.402c0.085-0.269,0.127-0.906,0.127-1.916V380.239z"/>
		<path fill="#FFFFFF" d="M-367.415,389.54h3.41v3.428h-8.315l2.917-9.194l-2.972-7.943h8.306v3.428h-3.279l1.756,4.542
			L-367.415,389.54z"/>
		<path fill="#FFFFFF" d="M-355.059,389.54h3.409v3.428h-8.314l2.916-9.194l-2.971-7.943h8.306v3.428h-3.279l1.756,4.542
			L-355.059,389.54z"/>
		<path fill="#FFFFFF" d="M-340.275,375.839l-3.246,10.93v6.199h-4.126v-6.199l-3.131-10.93h4.089
			c0.641,3.343,1.001,5.595,1.082,6.749c0.248-1.825,0.662-4.077,1.242-6.749H-340.275z"/>
		<path fill="#FFFFFF" d="M-325.396,375.839v17.129h-3.893l-0.004-11.564l-1.55,11.564h-2.763l-1.633-11.299l-0.006,11.299h-3.893
			v-17.129h5.761c0.173,1.03,0.348,2.243,0.529,3.642l0.635,4.355l1.021-7.997H-325.396z"/>
		<path fill="#FFFFFF" d="M-309.82,375.839v17.129h-3.894l-0.006-11.564l-1.55,11.564h-2.76l-1.636-11.299l-0.006,11.299h-3.893
			v-17.129h5.764c0.172,1.03,0.348,2.243,0.529,3.642l0.631,4.355l1.025-7.997H-309.82z"/>
		<path fill="#FFFFFF" d="M-307.988,375.839h7.426v3.428h-2.974v3.249h2.783v3.258h-2.783v3.767h3.271v3.428h-7.723V375.839z"/>
		<path fill="#FFFFFF" d="M-289.666,375.839v3.428h-2.645v13.701h-4.452v-13.701h-2.636v-3.428H-289.666z"/>
		<path fill="#FFFFFF" d="M-278.201,385.867c0,1.721-0.043,2.941-0.121,3.654c-0.082,0.717-0.336,1.373-0.762,1.965
			c-0.43,0.593-1.004,1.046-1.731,1.363c-0.726,0.317-1.572,0.478-2.539,0.478c-0.916,0-1.738-0.151-2.47-0.45
			c-0.729-0.299-1.318-0.75-1.763-1.348c-0.443-0.602-0.707-1.255-0.791-1.959c-0.085-0.704-0.127-1.94-0.127-3.703v-2.929
			c0-1.723,0.039-2.94,0.12-3.657c0.082-0.713,0.336-1.369,0.762-1.961c0.427-0.593,1.004-1.046,1.729-1.363
			c0.729-0.317,1.574-0.478,2.539-0.478c0.918,0,1.74,0.15,2.472,0.45c0.729,0.299,1.315,0.749,1.76,1.348s0.71,1.252,0.795,1.959
			c0.084,0.704,0.127,1.938,0.127,3.702V385.867z M-282.657,380.239c0-0.798-0.042-1.306-0.129-1.529
			c-0.091-0.221-0.272-0.332-0.548-0.332c-0.232,0-0.411,0.091-0.532,0.269c-0.123,0.182-0.187,0.711-0.187,1.593v7.998
			c0,0.994,0.042,1.608,0.124,1.841c0.078,0.232,0.269,0.351,0.564,0.351c0.303,0,0.496-0.136,0.58-0.402
			c0.085-0.269,0.127-0.906,0.127-1.916V380.239z"/>
		<path fill="#FFFFFF" d="M-267.45,375.839l-1.565,7.574l2.357,9.555h-4.126c-0.492-1.708-0.943-3.79-1.354-6.242
			c-0.111,1.086-0.269,2.237-0.468,3.449l-0.42,2.793h-4.338l1.62-9.555l-1.62-7.574h4.307c0.079,0.472,0.233,1.257,0.463,2.357
			c0.188,0.841,0.339,1.611,0.456,2.318l0.952-4.676H-267.45z"/>
		<path fill="#FFFFFF" d="M-255.348,375.839v17.129h-4.456v-7.194h-1.332v7.194h-4.453v-17.129h4.453v6.127h1.332v-6.127H-255.348z"
			/>
		<path fill="#FFFFFF" d="M-432.505,403.694h7.426v3.428h-2.974v3.249h2.783v3.259h-2.783v3.766h3.271v3.428h-7.723V403.694z"/>
		<path fill="#FFFFFF" d="M-413.183,413.799c0,1.847-0.057,3.144-0.172,3.894c-0.118,0.746-0.398,1.369-0.847,1.864
			c-0.45,0.499-1.015,0.855-1.704,1.07c-0.687,0.215-1.499,0.323-2.439,0.323c-0.873,0-1.638-0.097-2.294-0.287
			s-1.206-0.493-1.645-0.91c-0.441-0.417-0.731-0.864-0.873-1.342c-0.143-0.48-0.233-1.076-0.275-1.783
			c-0.042-0.71-0.063-1.653-0.063-2.829v-3.186c0-1.826,0.055-3.116,0.163-3.866c0.109-0.752,0.387-1.369,0.838-1.853
			c0.447-0.48,1.012-0.825,1.695-1.03c0.686-0.206,1.502-0.306,2.454-0.306s1.771,0.097,2.454,0.296
			c0.687,0.196,1.249,0.538,1.692,1.019c0.445,0.484,0.726,1.106,0.844,1.868c0.115,0.762,0.172,2.053,0.172,3.872V413.799z
			 M-417.646,410.942v-3.017c0-0.719-0.036-1.212-0.108-1.48c-0.076-0.27-0.272-0.402-0.59-0.402c-0.254,0-0.432,0.105-0.532,0.317
			c-0.103,0.212-0.154,0.734-0.154,1.565v3.017H-417.646z M-419.031,413.439v3.555c0,0.435,0.04,0.776,0.121,1.019
			c0.082,0.244,0.263,0.365,0.544,0.365c0.248,0,0.43-0.1,0.548-0.296c0.114-0.196,0.172-0.662,0.172-1.396v-3.246H-419.031z"/>
		<path fill="#FFFFFF" d="M-411.478,403.694h7.427v3.428h-2.972v3.249h2.781v3.259h-2.781v3.766h3.268v3.428h-7.723V403.694z"/>
		<path fill="#FFFFFF" d="M-391.263,420.823h-4.697c-0.472-3.993-0.858-7.991-1.157-11.996c-0.284,4.005-0.632,8.003-1.043,11.996
			h-4.697l2.255-17.138h6.765L-391.263,420.823z"/>
		<path fill="#FFFFFF" d="M-380.173,413.724c0,1.72-0.039,2.94-0.121,3.654c-0.082,0.716-0.336,1.372-0.762,1.964
			c-0.426,0.593-1.004,1.046-1.729,1.363c-0.729,0.317-1.575,0.478-2.539,0.478c-0.919,0-1.741-0.15-2.473-0.45
			c-0.729-0.299-1.314-0.749-1.759-1.348c-0.444-0.602-0.711-1.255-0.795-1.959c-0.085-0.704-0.127-1.94-0.127-3.702v-2.929
			c0-1.724,0.042-2.941,0.12-3.658c0.082-0.713,0.336-1.369,0.762-1.961c0.43-0.593,1.004-1.046,1.732-1.363
			c0.726-0.317,1.571-0.478,2.539-0.478c0.916,0,1.738,0.151,2.469,0.45c0.729,0.299,1.318,0.75,1.763,1.348
			c0.444,0.599,0.707,1.252,0.792,1.959c0.084,0.704,0.127,1.938,0.127,3.703V413.724z M-384.625,408.096
			c0-0.798-0.046-1.306-0.133-1.529c-0.088-0.221-0.27-0.333-0.544-0.333c-0.233,0-0.411,0.091-0.535,0.27
			c-0.124,0.181-0.185,0.71-0.185,1.593v7.997c0,0.995,0.039,1.608,0.121,1.841c0.081,0.232,0.269,0.351,0.565,0.351
			c0.302,0,0.498-0.136,0.583-0.401c0.085-0.27,0.127-0.907,0.127-1.917V408.096z"/>
		<path fill="#FFFFFF" d="M-368.521,403.694v17.129h-3.901l-2.318-7.786v7.786h-3.724v-17.129h3.724l2.496,7.714v-7.714H-368.521z"
			/>
		<path fill="#FFFFFF" d="M-357.519,403.694v3.428h-2.646v13.701h-4.452v-13.701h-2.636v-3.428H-357.519z"/>
		<path fill="#FFFFFF" d="M-356.259,420.823v-17.138h4.465v17.138H-356.259z"/>
		<path fill="#FFFFFF" d="M-345.746,417.396h3.406v3.428h-8.315l2.917-9.194l-2.968-7.943h8.303v3.428h-3.276l1.753,4.543
			L-345.746,417.396z"/>
		<path fill="#FFFFFF" d="M-327.2,403.694v17.129h-3.893l-0.006-11.564l-1.548,11.564h-2.763l-1.635-11.298l-0.004,11.298h-3.893
			v-17.129h5.761c0.173,1.031,0.348,2.243,0.529,3.643l0.632,4.355l1.024-7.998H-327.2z"/>
		<path fill="#FFFFFF" d="M-315.183,413.724c0,1.72-0.039,2.94-0.121,3.654c-0.081,0.716-0.335,1.372-0.761,1.964
			c-0.427,0.593-1.004,1.046-1.729,1.363s-1.571,0.478-2.539,0.478c-0.916,0-1.74-0.15-2.469-0.45
			c-0.731-0.299-1.318-0.749-1.763-1.348c-0.444-0.602-0.71-1.255-0.795-1.959s-0.127-1.94-0.127-3.702v-2.929
			c0-1.724,0.042-2.941,0.124-3.658c0.079-0.713,0.333-1.369,0.762-1.961c0.426-0.593,1.004-1.046,1.729-1.363
			c0.726-0.317,1.572-0.478,2.539-0.478c0.916,0,1.741,0.151,2.47,0.45c0.731,0.299,1.317,0.75,1.763,1.348
			c0.443,0.599,0.707,1.252,0.791,1.959c0.085,0.704,0.127,1.938,0.127,3.703V413.724z M-319.635,408.096
			c0-0.798-0.045-1.306-0.133-1.529c-0.088-0.221-0.269-0.333-0.544-0.333c-0.232,0-0.411,0.091-0.535,0.27
			c-0.124,0.181-0.185,0.71-0.185,1.593v7.997c0,0.995,0.04,1.608,0.121,1.841c0.082,0.232,0.27,0.351,0.565,0.351
			c0.305,0,0.499-0.136,0.583-0.401c0.085-0.27,0.127-0.907,0.127-1.917V408.096z"/>
		<path fill="#FFFFFF" d="M-309.721,417.396h3.409v3.428h-8.314l2.917-9.194l-2.972-7.943h8.306v3.428h-3.279l1.757,4.543
			L-309.721,417.396z"/>
	</g>
	<g>
		<path fill="#FFF38D" d="M-564.833,348.197h30.836v14.717h-12.344v13.946h11.555v13.988h-11.555v16.171h13.574v14.717h-32.066
			V348.197z"/>
		<path fill="#FFF38D" d="M-488.006,370.453h-17.177v-5.45c0-2.542-0.22-4.165-0.656-4.857c-0.441-0.701-1.173-1.049-2.197-1.049
			c-1.114,0-1.954,0.469-2.527,1.412c-0.571,0.939-0.858,2.36-0.858,4.271c0,2.454,0.322,4.304,0.966,5.547
			c0.612,1.242,2.356,2.741,5.227,4.494c8.231,5.054,13.418,9.2,15.555,12.44c2.139,3.24,3.206,8.464,3.206,15.669
			c0,5.241-0.591,9.101-1.777,11.586c-1.185,2.481-3.478,4.561-6.873,6.244c-3.399,1.681-7.353,2.521-11.862,2.521
			c-4.951,0-9.175-0.97-12.677-2.907c-3.499-1.938-5.79-4.407-6.873-7.402c-1.084-2.998-1.623-7.254-1.623-12.768v-4.812h17.175
			v8.946c0,2.757,0.244,4.528,0.723,5.314c0.485,0.788,1.342,1.185,2.572,1.185s2.144-0.502,2.743-1.502
			c0.602-0.998,0.902-2.481,0.902-4.449c0-4.332-0.571-7.164-1.712-8.497c-1.175-1.332-4.059-3.557-8.655-6.677
			c-4.6-3.149-7.643-5.435-9.136-6.857c-1.496-1.424-2.732-3.392-3.714-5.906c-0.983-2.512-1.473-5.722-1.473-9.63
			c0-5.631,0.694-9.751,2.088-12.354c1.391-2.605,3.638-4.643,6.743-6.108c3.104-1.469,6.853-2.203,11.246-2.203
			c4.803,0,8.896,0.801,12.279,2.409c3.382,1.602,5.622,3.624,6.722,6.06c1.095,2.442,1.645,6.58,1.645,12.426V370.453z"/>
		<path fill="#FFF38D" d="M-442.993,348.197v14.717h-10.98v58.822h-18.495v-58.822h-10.939v-14.717H-442.993z"/>
		<path fill="#FFF38D" d="M-600.924,397.123c5.343,8.809,11.556,17.015,18.492,24.537v-30.812h11.42V376.86h-11.42v-13.946h12.827
			v-14.717h-31.319V397.123z"/>
	</g>
	<g>
		<path fill="#FFFFFF" d="M-550.177,275.137h-21.859v-6.709c0-3.129-0.279-5.124-0.839-5.981c-0.559-0.856-1.49-1.286-2.794-1.286
			c-1.418,0-2.487,0.579-3.215,1.733c-0.727,1.156-1.091,2.909-1.091,5.26c0,3.02,0.406,5.297,1.226,6.826
			c0.778,1.528,2.995,3.372,6.649,5.534c10.477,6.218,17.077,11.321,19.798,15.308c2.721,3.988,4.082,10.417,4.082,19.285
			c0,6.45-0.756,11.202-2.266,14.258c-1.508,3.056-4.425,5.619-8.749,7.687c-4.321,2.067-9.354,3.104-15.093,3.104
			c-6.299,0-11.676-1.193-16.13-3.578c-4.453-2.385-7.37-5.423-8.748-9.113c-1.379-3.69-2.069-8.926-2.069-15.708v-5.927h21.859
			v11.014c0,3.392,0.308,5.57,0.923,6.541c0.613,0.967,1.705,1.453,3.271,1.453c1.564,0,2.729-0.616,3.494-1.847
			c0.763-1.227,1.146-3.056,1.146-5.477c0-5.329-0.727-8.813-2.181-10.455c-1.49-1.638-5.161-4.38-11.013-8.218
			c-5.852-3.875-9.729-6.689-11.628-8.44c-1.901-1.752-3.476-4.175-4.724-7.268c-1.249-3.094-1.874-7.045-1.874-11.852
			c0-6.933,0.885-12.001,2.656-15.207c1.77-3.205,4.631-5.711,8.581-7.519s8.722-2.711,14.312-2.711
			c6.112,0,11.321,0.987,15.625,2.962c4.305,1.976,7.156,4.463,8.554,7.465c1.398,2.999,2.097,8.096,2.097,15.289V275.137z"/>
		<path fill="#FFFFFF" d="M-541.665,247.743h23.702c6.411,0,11.341,0.504,14.788,1.51c3.447,1.007,6.038,2.461,7.771,4.36
			c1.733,1.901,2.906,4.203,3.521,6.905c0.615,2.702,0.924,6.885,0.924,12.551v7.881c0,5.778-0.597,9.99-1.789,12.636
			c-1.192,2.646-3.383,4.678-6.569,6.094c-3.187,1.415-7.352,2.122-12.494,2.122h-6.317v36.452h-23.536V247.743z M-518.129,263.229
			v23.033c0.67,0.036,1.248,0.056,1.732,0.056c2.162,0,3.661-0.531,4.5-1.594c0.839-1.062,1.258-3.271,1.258-6.624v-7.436
			c0-3.094-0.484-5.106-1.453-6.038C-513.06,263.695-515.073,263.229-518.129,263.229z"/>
		<path fill="#FFFFFF" d="M-484.713,247.743h39.246v18.114h-15.71v17.162h14.703v17.22h-14.703v19.9h17.275v18.114h-40.812V247.743z
			"/>
		<path fill="#FFFFFF" d="M-382.604,287.157h-23.536v-15.733c0-4.575-0.251-7.428-0.756-8.562c-0.502-1.134-1.611-1.702-3.324-1.702
			c-1.94,0-3.171,0.691-3.691,2.069c-0.522,1.38-0.782,4.36-0.782,8.945v42.04c0,4.398,0.26,7.267,0.782,8.608
			c0.521,1.342,1.696,2.013,3.521,2.013c1.754,0,2.898-0.674,3.439-2.019c0.539-1.345,0.811-4.501,0.811-9.47v-11.377h23.536v3.527
			c0,9.367-0.661,16.011-1.985,19.931c-1.324,3.917-4.25,7.354-8.777,10.301c-4.528,2.947-10.11,4.425-16.742,4.425
			c-6.897,0-12.58-1.248-17.053-3.748c-4.471-2.496-7.436-5.951-8.89-10.37c-1.454-4.416-2.183-11.06-2.183-19.928v-26.442
			c0-6.522,0.224-11.415,0.672-14.676c0.45-3.262,1.783-6.4,3.998-9.42c2.219-3.018,5.293-5.396,9.226-7.127
			c3.932-1.733,8.45-2.6,13.559-2.6c6.931,0,12.652,1.336,17.162,4.02c4.51,2.679,7.472,6.02,8.89,10.021
			c1.414,3.999,2.124,10.226,2.124,18.672V287.157z"/>
		<path fill="#FFFFFF" d="M-339.928,338.254v-72.396h13.662c-2.183-6.235-4.755-12.279-7.681-18.114h-43.437v18.114h13.919v72.396
			H-339.928z"/>
	</g>
	<g>
		<path fill="#FFF38D" d="M-518.661,443.964v2.94h-9.476l0.002-2.463c2.807-4.585,4.474-7.427,5.004-8.518
			c0.525-1.094,0.798-1.943,0.798-2.554c0-0.472-0.085-0.819-0.242-1.049c-0.163-0.236-0.405-0.345-0.729-0.345
			c-0.334,0-0.577,0.127-0.731,0.378c-0.164,0.263-0.241,0.768-0.241,1.529v1.638h-3.86v-0.625c0-0.968,0.052-1.732,0.148-2.288
			c0.098-0.557,0.34-1.106,0.739-1.65c0.385-0.535,0.89-0.943,1.519-1.222c0.626-0.277,1.375-0.417,2.252-0.417
			c1.711,0,3.006,0.424,3.887,1.272c0.875,0.847,1.311,1.926,1.311,3.223c0,0.994-0.246,2.037-0.737,3.137
			c-0.494,1.104-1.951,3.44-4.365,7.013H-518.661z"/>
		<path fill="#FFF38D" d="M-506.833,435.488v5.755c0,1.31-0.068,2.265-0.215,2.856c-0.139,0.599-0.43,1.161-0.883,1.675
			c-0.447,0.52-0.988,0.895-1.623,1.121c-0.626,0.229-1.336,0.342-2.113,0.342c-1.033,0-1.892-0.121-2.572-0.356
			c-0.685-0.239-1.227-0.61-1.632-1.115c-0.406-0.505-0.695-1.034-0.859-1.593c-0.171-0.56-0.259-1.448-0.259-2.66v-6.024
			c0-1.577,0.135-2.769,0.411-3.561c0.274-0.782,0.814-1.417,1.629-1.895c0.816-0.475,1.802-0.714,2.958-0.714
			c0.945,0,1.792,0.163,2.54,0.496c0.747,0.329,1.3,0.734,1.672,1.206c0.37,0.48,0.619,1.013,0.751,1.614
			C-506.899,433.23-506.833,434.183-506.833,435.488z M-511.136,434.038c0-0.913-0.047-1.487-0.137-1.717
			c-0.088-0.236-0.295-0.345-0.622-0.345c-0.319,0-0.534,0.121-0.635,0.365c-0.104,0.245-0.156,0.811-0.156,1.696v8.424
			c0,1,0.05,1.607,0.148,1.811c0.095,0.205,0.302,0.308,0.623,0.308c0.318,0,0.527-0.117,0.625-0.362
			c0.1-0.239,0.153-0.783,0.153-1.626V434.038z"/>
		<path fill="#FFF38D" d="M-498.439,429.649v17.255h-4.302v-9.248c0-1.34-0.03-2.141-0.095-2.409
			c-0.069-0.27-0.243-0.478-0.53-0.617c-0.29-0.136-0.925-0.205-1.921-0.205h-0.427v-2.013c2.078-0.444,3.662-1.369,4.741-2.763
			H-498.439z"/>
		<path fill="#FFF38D" d="M-487.834,429.649v11.276h1.225v2.941h-1.225v3.037h-4.306v-3.037h-5.11v-2.941l3.714-11.276H-487.834z
			 M-492.14,440.926v-7.338l-1.902,7.338H-492.14z"/>
	</g>
</g>
<g>
	<path fill="#E61660" d="M593.41,331.481c0,92.135-74.131,166.831-165.577,166.831c-91.443,0-165.575-74.696-165.575-166.831
		c0-92.141,74.132-166.835,165.575-166.835C519.279,164.646,593.41,239.341,593.41,331.481z"/>
	<circle fill="#53C3C0" cx="346.768" cy="195.256" r="98.288"/>
	<g>
		<path fill="#FFFFFF" d="M287.429,139.993h18.065c12.044,0,20.197,0.465,24.461,1.395c4.265,0.929,7.739,3.304,10.428,7.124
			c2.687,3.818,4.031,9.911,4.031,18.278c0,7.638-0.95,12.771-2.85,15.398c-1.899,2.627-5.638,4.203-11.215,4.729
			c5.051,1.251,8.446,2.93,10.184,5.031c1.737,2.101,2.818,4.032,3.243,5.79c0.424,1.757,0.638,6.598,0.638,14.519v25.887h-23.703
			v-32.616c0-5.253-0.414-8.507-1.245-9.76c-0.826-1.252-3-1.878-6.516-1.878v44.254h-25.521V139.993z M312.95,156.785v21.825
			c2.871,0,4.881-0.395,6.033-1.183c1.15-0.787,1.728-3.343,1.728-7.668v-5.395c0-3.112-0.556-5.154-1.669-6.125
			C317.931,157.27,315.901,156.785,312.95,156.785z"/>
		<path fill="#FFFFFF" d="M352.754,139.993h42.556v19.642h-17.033v18.612h15.943v18.67h-15.943v21.581h18.731v19.644h-44.254
			V139.993z"/>
		<path fill="#FFFFFF" d="M433.15,189.461v16.914h-32.19v-16.914H433.15z"/>
	</g>
	<g>
		<path fill="#FFF38D" d="M325.61,365.319h33.438v15.958h-13.385v15.122h12.53v15.169h-12.53v17.535h14.719v15.959H325.61V365.319z"
			/>
		<path fill="#FFF38D" d="M408.92,389.451h-18.626v-5.909c0-2.757-0.238-4.517-0.711-5.268c-0.479-0.76-1.273-1.138-2.384-1.138
			c-1.207,0-2.119,0.508-2.74,1.531c-0.619,1.02-0.931,2.561-0.931,4.631c0,2.662,0.35,4.667,1.048,6.016
			c0.663,1.347,2.554,2.972,5.666,4.872c8.927,5.48,14.551,9.978,16.869,13.491c2.319,3.513,3.476,9.177,3.476,16.991
			c0,5.684-0.642,9.869-1.928,12.562c-1.284,2.691-3.771,4.946-7.453,6.771c-3.685,1.822-7.973,2.733-12.862,2.733
			c-5.369,0-9.949-1.052-13.746-3.153c-3.794-2.101-6.278-4.778-7.454-8.026c-1.175-3.251-1.76-7.866-1.76-13.845v-5.218h18.625
			v9.702c0,2.988,0.264,4.909,0.784,5.761c0.524,0.856,1.454,1.285,2.789,1.285c1.333,0,2.323-0.544,2.975-1.629
			c0.65-1.081,0.978-2.69,0.978-4.823c0-4.697-0.62-7.769-1.856-9.214c-1.273-1.445-4.401-3.858-9.386-7.24
			c-4.987-3.415-8.287-5.893-9.906-7.438c-1.623-1.543-2.963-3.678-4.026-6.403c-1.066-2.725-1.599-6.204-1.599-10.443
			c0-6.105,0.754-10.573,2.265-13.395c1.509-2.826,3.945-5.034,7.313-6.624c3.365-1.593,7.43-2.39,12.193-2.39
			c5.208,0,9.647,0.868,13.315,2.612c3.667,1.737,6.097,3.931,7.289,6.571c1.187,2.648,1.783,7.136,1.783,13.475V389.451z"/>
		<path fill="#FFF38D" d="M457.73,365.319v15.958h-11.907v63.785h-20.056v-63.785h-11.862v-15.958H457.73z"/>
		<path fill="#FFF38D" d="M286.475,418.373c5.793,9.551,12.53,18.449,20.053,26.606v-33.411h12.383v-15.169h-12.383v-15.122h13.909
			v-15.958h-33.962V418.373z"/>
	</g>
	<g>
		<path fill="#FFFFFF" d="M341.553,286.119h-23.726v-7.281c0-3.396-0.303-5.562-0.909-6.491s-1.616-1.396-3.03-1.396
			c-1.541,0-2.704,0.629-3.491,1.883c-0.79,1.254-1.185,3.155-1.185,5.707c0,3.277,0.439,5.749,1.33,7.408
			c0.844,1.658,3.253,3.66,7.218,6.007c11.369,6.748,18.534,12.286,21.485,16.613c2.953,4.329,4.43,11.307,4.43,20.934
			c0,6.997-0.819,12.154-2.459,15.472c-1.636,3.317-4.801,6.098-9.494,8.342c-4.689,2.245-10.152,3.368-16.379,3.368
			c-6.836,0-12.674-1.293-17.506-3.884c-4.836-2.588-8.001-5.885-9.496-9.889c-1.497-4.005-2.247-9.688-2.247-17.051v-6.432h23.725
			v11.953c0,3.682,0.336,6.047,1.003,7.1c0.667,1.051,1.85,1.577,3.55,1.577c1.696,0,2.962-0.668,3.792-2.003
			c0.829-1.333,1.242-3.316,1.242-5.945c0-5.784-0.789-9.566-2.365-11.346c-1.617-1.78-5.603-4.754-11.953-8.919
			c-6.35-4.207-10.559-7.261-12.619-9.162c-2.064-1.9-3.772-4.529-5.126-7.889c-1.357-3.356-2.036-7.644-2.036-12.861
			c0-7.524,0.961-13.024,2.885-16.504c1.921-3.479,5.024-6.198,9.312-8.16c4.286-1.961,9.465-2.942,15.531-2.942
			c6.634,0,12.29,1.071,16.959,3.216c4.672,2.143,7.768,4.843,9.284,8.101c1.519,3.256,2.275,8.786,2.275,16.593V286.119z"/>
		<path fill="#FFFFFF" d="M350.789,256.389h25.726c6.958,0,12.308,0.547,16.048,1.639c3.742,1.093,6.554,2.67,8.436,4.732
			c1.882,2.063,3.152,4.561,3.82,7.494c0.668,2.933,1.003,7.473,1.003,13.621v8.554c0,6.271-0.647,10.841-1.942,13.715
			c-1.294,2.87-3.671,5.076-7.128,6.612c-3.459,1.536-7.979,2.304-13.562,2.304h-6.854v39.562h-25.546V256.389z M376.335,273.196
			v24.997c0.726,0.04,1.353,0.062,1.879,0.062c2.348,0,3.975-0.578,4.884-1.73s1.365-3.55,1.365-7.189v-8.07
			c0-3.356-0.524-5.542-1.577-6.553C381.835,273.702,379.649,273.196,376.335,273.196z"/>
		<path fill="#FFFFFF" d="M412.602,256.389h42.593v19.659h-17.052v18.626h15.958v18.688h-15.958v21.602h18.751v19.657h-44.292
			V256.389z"/>
		<path fill="#FFFFFF" d="M523.421,299.164h-25.546v-17.075c0-4.964-0.271-8.061-0.819-9.291c-0.544-1.23-1.749-1.848-3.608-1.848
			c-2.104,0-3.44,0.75-4.006,2.246c-0.566,1.497-0.849,4.732-0.849,9.708v45.626c0,4.772,0.282,7.889,0.849,9.344
			c0.565,1.456,1.841,2.185,3.82,2.185c1.904,0,3.148-0.729,3.735-2.19c0.585-1.461,0.878-4.887,0.878-10.277v-12.347h25.546v3.827
			c0,10.168-0.72,17.378-2.156,21.631c-1.435,4.251-4.61,7.979-9.527,11.181c-4.913,3.199-10.971,4.801-18.17,4.801
			c-7.483,0-13.651-1.355-18.506-4.065c-4.854-2.71-8.067-6.461-9.647-11.255c-1.578-4.793-2.368-12.003-2.368-21.63v-28.698
			c0-7.079,0.242-12.389,0.728-15.928c0.488-3.54,1.934-6.947,4.34-10.224c2.409-3.276,5.746-5.855,10.013-7.735
			c4.268-1.882,9.17-2.821,14.715-2.821c7.522,0,13.73,1.45,18.626,4.363c4.894,2.905,8.111,6.532,9.647,10.876
			c1.536,4.34,2.307,11.098,2.307,20.265V299.164z"/>
		<path fill="#FFFFFF" d="M569.736,354.621v-78.573h14.826c-2.367-6.767-5.159-13.326-8.336-19.659h-47.14v19.659h15.104v78.573
			H569.736z"/>
	</g>
	<g>
		<path fill="#FFF38D" d="M474.042,431.035h4.049v13.042l-3.389-0.004c-6.318-3.86-10.227-6.157-11.726-6.887
			c-1.504-0.726-2.674-1.096-3.516-1.096c-0.647,0-1.128,0.112-1.445,0.331c-0.318,0.224-0.475,0.558-0.475,1.005
			c0,0.457,0.176,0.791,0.526,1.007c0.354,0.224,1.053,0.33,2.098,0.33h2.258v5.313h-0.863c-1.33,0-2.379-0.068-3.148-0.205
			c-0.763-0.136-1.521-0.47-2.266-1.013c-0.742-0.537-1.304-1.232-1.687-2.097c-0.383-0.859-0.574-1.893-0.574-3.099
			c0-2.354,0.585-4.134,1.756-5.349c1.169-1.207,2.647-1.806,4.437-1.806c1.36,0,2.795,0.341,4.312,1.019
			c1.517,0.678,4.735,2.686,9.652,6.006V431.035z"/>
		<path fill="#FFF38D" d="M462.381,414.755h7.92c1.802,0,3.112,0.097,3.93,0.294c0.822,0.195,1.593,0.597,2.304,1.213
			c0.716,0.62,1.23,1.365,1.541,2.234c0.318,0.866,0.47,1.841,0.47,2.913c0,1.421-0.162,2.603-0.491,3.538
			c-0.328,0.943-0.837,1.689-1.534,2.247c-0.69,0.559-1.422,0.955-2.19,1.184c-0.768,0.236-1.988,0.355-3.659,0.355h-8.289
			c-2.179,0-3.815-0.187-4.899-0.564c-1.086-0.379-1.958-1.124-2.611-2.245c-0.656-1.12-0.985-2.475-0.985-4.071
			c0-1.301,0.23-2.464,0.684-3.493c0.454-1.029,1.012-1.794,1.663-2.302c0.659-0.508,1.395-0.852,2.218-1.035
			C459.271,414.846,460.58,414.755,462.381,414.755z M460.384,420.679c-1.26,0-2.051,0.062-2.368,0.188
			c-0.318,0.122-0.475,0.404-0.475,0.854c0,0.441,0.169,0.736,0.507,0.874c0.337,0.143,1.112,0.212,2.336,0.212h11.593
			c1.375,0,2.208-0.066,2.491-0.199c0.283-0.131,0.426-0.419,0.426-0.856c0-0.439-0.166-0.728-0.501-0.864
			c-0.329-0.136-1.078-0.207-2.241-0.207H460.384z"/>
		<path fill="#FFF38D" d="M454.343,403.2h23.748v5.923h-12.731c-1.838,0-2.943,0.045-3.314,0.132
			c-0.373,0.095-0.656,0.332-0.846,0.73c-0.19,0.396-0.285,1.274-0.285,2.644v0.588h-2.768c-0.616-2.865-1.888-5.04-3.804-6.528
			V403.2z"/>
		<path fill="#FFF38D" d="M454.343,388.604h15.519v-1.684h4.05v1.684h4.18v5.925h-4.18v7.041h-4.05l-15.519-5.114V388.604z
			 M469.861,394.529h-10.105l10.105,2.621V394.529z"/>
	</g>
</g>
</svg>
